<svg xmlns="http://www.w3.org/2000/svg" viewBox="0 0 365.99 331.83" fill="#1a9a67" aria-label="Orchentra">
  <g transform="translate(-81 414) scale(0.1 -0.1)">
    <path d="M1792 4128 c-5 -7 -20 -35 -32 -63 -12 -27 -39 -86 -60 -130 -20 -44 -99 -213 -174 -375 -76 -162 -148 -317 -161 -345 -485 -1037 -435 -923 -491 -1120 -48 -166 -64 -268 -64 -402 0 -356 162 -626 461 -766 76 -36 188 -67 309 -86 39 -7 280 -11 606 -11 l541 0 33 128 c18 70 50 192 70 272 42 164 80 294 84 288 6 -6 106 -246 106 -253 0 -3 9 -25 19 -49 20 -43 82 -196 130 -321 l27 -70 629 -3 c347 -1 635 0 642 2 12 5 -4 52 -199 591 -45 123 -112 312 -163 455 -18 52 -59 165 -90 250 -31 85 -70 191 -85 235 -32 91 -97 273 -163 455 -25 69 -66 184 -92 255 -26 72 -67 186 -92 255 -25 69 -58 161 -73 205 -15 44 -53 148 -83 230 -30 83 -63 173 -72 200 -10 28 -29 80 -42 118 l-25 67 -743 0 c-582 0 -745 -3 -753 -12z m159 -100 c6 -12 24 -56 39 -97 15 -42 55 -148 89 -236 35 -88 73 -189 86 -225 13 -36 47 -126 75 -200 29 -74 69 -180 90 -235 20 -55 63 -167 95 -250 32 -82 66 -173 76 -202 17 -51 55 -148 131 -341 24 -59 37 -106 32 -111 -14 -13 -176 -79 -209 -85 -435 -85 -768 88 -924 479 -22 55 -45 129 -50 165 -13 81 -14 303 -1 390 14 101 64 244 144 415 26 55 55 118 65 140 26 57 128 279 162 353 26 56 32 62 59 62 20 0 33 -7 41 -22z"/>
  </g>
</svg>
