<?xml version="1.0" standalone="no"?>
<!DOCTYPE svg PUBLIC "-//W3C//DTD SVG 20010904//EN"
 "http://www.w3.org/TR/2001/REC-SVG-20010904/DTD/svg10.dtd">
<svg version="1.0" xmlns="http://www.w3.org/2000/svg"
 width="1024.000000pt" height="1024.000000pt" viewBox="0 0 1024.000000 1024.000000"
 preserveAspectRatio="xMidYMid meet">
<metadata>
Created by potrace 1.16, written by Peter Selinger 2001-2019
</metadata>
<g transform="translate(0.000000,1024.000000) scale(0.100000,-0.100000)"
fill="#000000" stroke="none">
<path d="M5860 9316 c-25 -13 -48 -22 -52 -19 -5 2 -8 -1 -8 -7 0 -6 -4 -9 -9
-6 -9 6 -163 -91 -169 -106 -2 -5 -7 -6 -12 -3 -13 8 -187 -163 -270 -265 -83
-103 -184 -250 -231 -340 -16 -30 -45 -80 -64 -110 -52 -84 -111 -224 -140
-335 -23 -87 -28 -130 -35 -320 -8 -237 -16 -278 -76 -382 -63 -109 -267 -341
-523 -593 -156 -155 -186 -205 -186 -320 0 -63 5 -84 30 -133 41 -81 121 -152
238 -211 103 -52 103 -52 109 -133 2 -29 -1 -44 -10 -48 -8 -3 -12 -12 -8 -20
3 -8 1 -14 -3 -12 -9 2 -114 -121 -130 -152 -35 -68 -9 -205 53 -278 l35 -40
-21 -19 c-60 -54 -89 -147 -69 -220 6 -22 28 -65 50 -95 86 -122 95 -182 42
-306 -107 -250 -77 -426 103 -590 68 -63 131 -96 241 -128 119 -34 254 -45
470 -37 346 13 447 9 574 -22 134 -33 280 -102 373 -177 122 -96 217 -233 373
-534 48 -93 97 -186 108 -205 43 -74 207 -318 230 -341 13 -13 38 -45 57 -71
18 -27 35 -48 38 -48 2 0 -3 10 -11 22 -29 41 -67 111 -63 115 2 2 14 -13 27
-34 46 -77 208 -279 249 -312 37 -30 41 -31 30 -10 -7 13 -30 50 -52 81 -21
31 -38 60 -38 63 0 4 -13 26 -30 50 -16 24 -30 47 -30 51 0 4 -32 62 -72 128
-76 128 -137 241 -242 447 -167 329 -258 483 -337 576 -116 135 -322 264 -509
317 -47 14 -81 25 -76 25 5 1 104 24 220 51 468 112 808 244 1006 390 104 78
210 178 271 259 88 116 223 418 217 486 -1 16 4 50 11 75 48 168 75 250 81
250 4 0 13 -7 20 -14 6 -8 34 -22 62 -32 209 -69 463 175 567 546 41 144 51
208 51 316 0 172 -57 282 -176 340 -48 24 -63 26 -132 22 -125 -7 -170 -38
-322 -220 -63 -75 -129 -124 -180 -133 -81 -14 -205 37 -288 118 -105 103
-139 181 -177 407 -35 205 -63 298 -128 425 -102 199 -402 416 -692 500 -306
88 -743 62 -870 -52 -52 -46 -65 -74 -65 -135 0 -55 3 -63 34 -94 19 -19 48
-37 65 -40 17 -4 34 -10 36 -14 3 -5 11 -62 19 -129 13 -111 11 -169 -9 -200
-4 -7 -10 -42 -13 -79 l-7 -67 -60 -3 c-40 -2 -64 -8 -72 -19 -7 -8 -19 -13
-27 -10 -25 10 -13 -35 17 -65 43 -43 99 -65 207 -84 43 -7 44 -8 15 -14 l-30
-6 40 -13 c22 -7 96 -15 165 -18 159 -7 333 20 454 71 45 18 121 50 170 71 49
21 121 43 160 49 104 18 101 34 -17 90 -53 24 -115 57 -139 73 -23 17 -108 64
-188 106 -202 106 -341 140 -466 117 -35 -7 -64 -17 -64 -22 0 -5 -4 -7 -9 -4
-5 4 -20 -7 -34 -23 l-25 -30 -11 72 c-5 40 -13 86 -17 104 -6 31 -5 32 32 38
22 3 107 19 189 35 248 48 275 51 364 51 179 0 332 -47 619 -188 168 -83 174
-87 197 -132 36 -72 62 -173 85 -326 29 -196 45 -258 90 -351 31 -65 54 -95
111 -148 97 -90 177 -128 279 -134 71 -4 86 -2 133 22 32 15 80 54 120 95 36
37 68 67 70 64 2 -2 10 4 18 14 12 15 12 16 -1 8 -8 -4 3 9 25 29 93 86 221
120 291 77 42 -25 79 -77 93 -126 21 -75 14 -237 -14 -334 -82 -285 -220 -486
-362 -527 -71 -21 -116 -13 -166 28 -26 20 -42 27 -45 20 -2 -7 -8 -9 -14 -6
-13 8 -28 -14 -28 -41 0 -11 -12 -28 -25 -38 -24 -17 -24 -17 -19 0 3 10 -1 6
-10 -8 -8 -14 -31 -77 -50 -140 -73 -235 -90 -281 -137 -378 -142 -297 -319
-459 -678 -621 -318 -144 -1001 -326 -1296 -345 -55 -3 -115 -8 -133 -11 -18
-2 -81 -4 -140 -5 -308 -1 -522 96 -578 264 -29 88 -23 176 21 287 46 116 52
214 17 293 l-21 47 74 0 c74 0 235 41 235 59 0 5 21 16 48 26 l47 19 -35 9
c-25 6 -61 3 -140 -14 -128 -28 -256 -31 -293 -6 -51 33 -41 112 21 171 30 28
33 28 119 24 62 -4 124 -16 208 -42 231 -71 373 -81 390 -26 11 34 -13 57
-112 111 -112 60 -167 98 -273 187 -163 138 -233 168 -319 138 -24 -9 -47 -16
-52 -16 -5 0 11 28 36 61 72 98 96 196 69 287 -5 19 -3 22 19 22 14 0 29 5 32
11 13 20 -15 64 -58 91 -38 25 -39 28 -17 28 32 0 93 -29 149 -70 l44 -32 -23
-18 c-31 -23 -20 -36 48 -55 132 -39 230 -4 278 99 29 62 30 118 4 171 -11 22
-18 32 -15 22 8 -28 -11 -11 -25 22 -6 16 -19 32 -27 35 -11 5 -13 2 -8 -11
47 -117 46 -177 -7 -230 -36 -36 -88 -54 -131 -46 -18 4 -27 13 -31 34 -13 68
-176 169 -271 169 -65 0 -105 -27 -105 -70 l0 -29 -37 22 c-58 33 -129 111
-148 161 -35 91 -5 137 206 323 114 100 377 381 433 461 55 81 112 207 126
277 6 33 15 148 20 255 11 230 21 294 62 415 54 159 226 479 351 655 81 113
277 309 407 405 58 42 107 81 108 86 6 15 -21 9 -68 -15z m187 -1392 c46 -8
122 -26 170 -40 89 -26 260 -100 251 -109 -2 -3 -36 6 -75 20 -220 77 -370 79
-703 9 -90 -19 -177 -34 -193 -34 -27 0 -29 2 -22 27 32 131 262 182 572 127z
m-582 -59 c-13 -20 -26 -49 -30 -65 -7 -33 -25 -39 -45 -14 -21 24 0 65 45 91
54 31 58 29 30 -12z m395 -366 c19 -7 42 -20 50 -29 8 -10 26 -20 40 -25 33
-9 290 -149 356 -192 29 -19 58 -35 65 -37 8 -1 22 -7 33 -13 16 -9 12 -12
-33 -23 -28 -6 -58 -9 -67 -6 -9 3 -64 -3 -123 -14 -153 -30 -361 -37 -481
-16 -103 18 -186 42 -195 57 -3 5 -1 55 5 111 12 110 27 143 77 168 15 8 35
21 43 29 17 17 174 10 230 -10z m-1267 -1773 c18 -8 59 -37 92 -65 106 -91
219 -173 263 -192 46 -20 58 -35 15 -18 -16 6 -88 28 -162 50 -102 30 -151 39
-207 39 -68 0 -76 2 -110 32 -21 18 -45 51 -55 73 -22 47 -25 89 -6 82 7 -2
30 -1 52 3 62 12 83 11 118 -4z m2467 -899 c0 -2 -10 -12 -22 -23 l-23 -19 19
23 c18 21 26 27 26 19z M3703 6625 c-68 -69 -122 -115 -140 -119 -15 -4 -43
-19 -61 -32 -19 -15 -40 -23 -50 -20 -22 7 -71 -27 -113 -80 -22 -28 -39 -39
-61 -40 -34 -2 -85 -47 -126 -112 -21 -34 -31 -42 -48 -37 -35 8 -69 -29 -115
-124 -37 -76 -47 -90 -72 -95 -37 -8 -73 -84 -94 -203 -11 -61 -23 -97 -40
-116 -21 -26 -23 -38 -23 -128 0 -205 51 -338 202 -532 86 -111 110 -158 122
-242 6 -49 -9 -26 -18 27 -11 58 -43 89 -100 95 -70 8 -97 -10 -231 -158 -106
-117 -222 -228 -396 -380 -83 -73 -127 -147 -143 -240 -9 -56 -19 -80 -45
-111 -45 -53 -71 -127 -77 -213 -7 -101 -11 -111 -48 -153 -19 -21 -34 -44
-34 -52 3 -42 -4 -70 -18 -85 -21 -20 -13 -89 21 -182 21 -58 22 -69 10 -102
-16 -46 -6 -120 36 -271 72 -260 127 -346 314 -495 33 -26 120 -103 193 -171
74 -68 183 -164 245 -212 267 -210 396 -332 437 -412 46 -90 70 -283 70 -562
0 -79 4 -138 9 -138 5 0 12 12 14 27 3 16 5 -26 4 -91 -2 -88 1 -120 11 -124
7 -2 18 11 26 30 20 48 65 325 73 454 5 80 9 101 15 79 4 -16 5 16 2 73 -3 56
-14 137 -24 179 -54 210 -162 338 -475 563 -82 59 -208 159 -280 222 -71 62
-170 145 -220 183 -115 88 -169 139 -205 195 -28 44 -80 168 -80 192 0 7 22
-11 48 -40 48 -52 79 -64 100 -39 23 27 16 129 -16 262 -86 353 -142 619 -142
672 0 37 8 74 21 103 l21 45 18 -85 c10 -47 36 -157 59 -245 22 -88 54 -225
71 -305 22 -104 37 -155 56 -181 41 -60 67 -62 82 -5 12 42 -26 316 -62 448
-63 231 -97 384 -103 456 -9 124 7 151 193 323 161 148 204 194 317 341 37 47
79 96 94 108 26 20 27 20 46 2 15 -15 19 -34 18 -88 0 -118 -61 -266 -154
-377 -158 -187 -206 -260 -207 -314 0 -12 18 -56 40 -97 21 -42 60 -141 85
-220 28 -88 58 -161 76 -186 53 -73 262 -214 365 -245 163 -49 251 31 248 226
-2 100 -48 209 -163 384 -75 113 -104 179 -129 293 -14 63 -14 87 -3 172 19
154 45 214 99 225 29 5 49 -21 76 -107 29 -92 76 -198 87 -198 14 0 39 -57 33
-73 -3 -8 -1 -18 5 -22 7 -4 8 1 4 12 -8 23 1 15 17 -16 7 -15 8 -21 1 -17 -7
5 -9 1 -5 -8 3 -9 11 -13 17 -9 6 3 7 1 3 -5 -8 -13 87 -188 165 -302 67 -98
218 -286 337 -421 46 -52 106 -128 133 -169 124 -187 237 -462 273 -665 44
-249 66 -606 65 -1054 -1 -460 2 -634 11 -591 l7 35 3 -30 c2 -30 2 -30 10 -5
4 14 8 42 9 63 1 23 5 36 11 32 7 -4 9 9 5 37 -3 29 -2 35 3 18 7 -21 9 -18
14 26 4 27 5 70 3 95 -4 37 -3 39 4 14 6 -21 9 12 10 105 1 90 4 130 11 120 9
-14 13 180 13 655 0 213 -25 420 -74 619 -24 95 -19 113 6 21 24 -87 37 -93
18 -7 -42 188 -154 439 -268 597 -35 50 -135 167 -222 261 -170 184 -275 315
-356 448 -29 46 -78 122 -110 170 -49 71 -158 292 -157 315 1 3 19 -28 40 -69
21 -41 39 -71 40 -67 1 24 -100 198 -140 239 -42 43 -51 48 -91 48 -26 0 -57
-8 -76 -20 -46 -27 -41 -11 13 49 58 65 75 73 220 111 206 54 321 117 437 238
56 60 68 87 45 110 -8 8 3 25 49 69 62 60 101 123 114 183 4 19 15 64 25 100
16 62 17 67 0 102 -17 35 -17 40 -1 106 13 54 15 74 6 91 -7 11 -16 21 -21 21
-5 0 -6 44 -3 104 l6 104 -27 17 c-24 16 -26 23 -26 86 0 58 -3 71 -20 81 -15
9 -20 24 -20 53 0 55 -18 114 -44 150 -40 53 -45 70 -61 201 -9 70 -18 131
-21 136 -13 21 -47 -4 -151 -107z m43 -162 c-53 -189 -72 -247 -78 -237 -14
25 -30 139 -26 183 4 44 12 57 69 119 35 39 66 68 67 67 2 -2 -12 -61 -32
-132z m105 -86 l24 -48 -28 -53 c-23 -43 -166 -218 -174 -212 -1 1 15 56 36
121 33 102 58 196 98 370 5 23 8 11 13 -50 5 -55 14 -95 31 -128z m-225 46
c-15 -55 -15 -88 0 -159 20 -98 16 -129 -33 -251 l-38 -97 -10 144 c-9 135 -7
216 9 315 5 35 5 37 -5 15 -6 -14 -18 -56 -28 -95 l-17 -70 -17 49 c-20 59
-22 96 -4 96 7 0 26 13 42 30 15 16 31 28 34 26 3 -2 15 0 26 5 33 13 47 10
41 -8z m-176 -91 c0 -15 14 -65 31 -112 26 -74 31 -103 36 -220 5 -131 5 -137
-23 -207 -16 -40 -32 -73 -36 -73 -4 0 -8 20 -8 44 0 24 -12 79 -27 122 -42
127 -43 139 -22 222 10 41 18 103 18 136 l-2 61 -8 -65 c-5 -36 -17 -94 -27
-129 -18 -63 -19 -64 -25 -32 -4 19 -7 68 -7 111 0 76 1 78 41 128 44 54 59
58 59 14z m450 -86 c0 -51 -3 -57 -74 -146 -41 -51 -88 -122 -105 -156 -18
-38 -45 -74 -67 -91 -20 -15 -52 -41 -70 -57 -19 -15 -34 -26 -34 -22 0 17 86
196 108 226 15 19 63 74 108 122 48 51 90 107 100 133 11 25 22 45 27 45 4 0
7 -24 7 -54z m-568 -65 c-4 -73 6 -154 23 -195 6 -14 5 -17 -4 -12 -21 13
-101 187 -101 218 0 46 15 64 52 64 l33 0 -3 -75z m-121 -37 c-5 -22 -13 -67
-17 -102 l-7 -63 -33 47 c-41 57 -42 67 -9 82 14 7 35 28 47 47 25 44 33 40
19 -11z m729 -4 c6 0 10 -6 10 -13 0 -7 -28 -25 -62 -41 -35 -17 -67 -32 -72
-34 -5 -3 13 27 40 66 48 69 49 70 62 46 7 -13 17 -24 22 -24z m-633 -215 c3
-43 -1 -81 -15 -135 -11 -41 -23 -68 -26 -60 -38 106 -54 253 -41 376 l7 69
35 -95 c19 -52 37 -122 40 -155z m-144 43 c16 -21 27 -53 32 -88 4 -30 13 -81
21 -114 8 -32 14 -65 12 -75 -6 -28 -54 68 -78 154 -11 44 -36 107 -54 141
-32 57 -33 62 -18 89 l15 29 23 -52 c12 -28 34 -66 47 -84z m787 112 c0 -27
-75 -100 -149 -145 -32 -19 -61 -35 -64 -35 -15 0 17 60 46 88 24 23 149 108
165 111 1 1 2 -8 2 -19z m10 -60 c0 -11 11 -27 25 -36 22 -14 25 -22 19 -48
-3 -17 -14 -39 -23 -50 -18 -21 -135 -106 -146 -106 -9 0 29 64 67 113 16 20
25 37 19 37 -11 0 -57 -57 -90 -112 -28 -46 -59 -69 -134 -97 -79 -29 -126
-54 -180 -95 -26 -20 -47 -33 -47 -31 0 3 9 24 20 45 33 66 128 151 251 227
68 43 133 92 160 121 49 56 59 61 59 32z m-867 -57 c45 -95 68 -217 65 -335
l-3 -103 -24 50 c-60 129 -96 290 -85 388 4 31 10 57 13 57 4 0 19 -26 34 -57z
m259 -13 c47 -71 68 -145 68 -241 0 -67 -5 -87 -38 -163 -22 -47 -42 -89 -45
-93 -4 -3 -7 11 -7 33 0 21 -9 77 -20 123 l-21 85 22 100 c19 94 20 105 6 164
-8 35 -12 60 -8 55 4 -4 23 -33 43 -63z m-328 -109 l6 -94 -22 19 c-22 20 -78
102 -78 116 0 4 9 8 21 8 30 0 59 18 59 37 0 9 2 14 4 12 2 -2 6 -46 10 -98z
m-34 -85 c45 -49 136 -245 185 -397 30 -93 42 -215 28 -269 l-9 -35 -18 55
c-10 30 -52 120 -94 200 l-75 144 -7 107 c-6 104 -7 108 -48 171 -39 59 -52
105 -35 121 4 4 12 -6 19 -22 7 -17 31 -50 54 -75z m971 60 c-12 -19 -50 -61
-86 -94 -63 -60 -129 -97 -279 -158 -39 -15 -98 -50 -133 -76 -35 -27 -63 -46
-63 -43 0 21 46 88 88 127 52 49 123 87 247 134 86 32 170 82 209 123 37 39
45 33 17 -13z m46 -69 c24 -15 13 -34 -46 -79 -41 -32 -78 -76 -124 -145 -35
-54 -75 -107 -88 -119 -13 -12 -60 -36 -104 -54 -137 -55 -217 -103 -287 -169
-38 -35 -68 -60 -68 -57 0 4 11 32 26 61 34 73 98 127 220 185 124 60 151 82
204 168 23 37 62 83 88 102 25 19 68 63 96 98 49 61 51 62 61 40 5 -13 15 -27
22 -31z m-1061 -34 c21 -36 29 -67 34 -123 6 -71 5 -89 -4 -79 -14 13 -71 249
-61 249 2 0 16 -21 31 -47z m-22 -128 c8 -30 12 -55 10 -55 -13 0 -82 41 -94
55 -12 15 -12 18 3 26 9 5 21 26 26 47 26 105 24 102 32 40 5 -32 15 -82 23
-113z m294 87 c18 -27 40 -71 48 -97 19 -66 18 -217 -3 -286 l-16 -54 -13 65
c-7 36 -24 97 -38 136 -22 60 -26 88 -26 178 0 58 3 106 8 106 4 0 22 -22 40
-48z m775 -64 c-5 -55 -8 -60 -57 -101 -63 -53 -116 -90 -121 -85 -9 8 89 162
131 205 24 26 46 45 48 42 2 -2 1 -30 -1 -61z m-1079 -90 c22 -12 38 -36 67
-102 l37 -87 -26 17 c-41 25 -72 55 -103 98 -19 25 -29 33 -29 22 0 -31 57
-100 125 -151 56 -42 72 -61 101 -121 39 -82 44 -111 11 -72 -12 15 -47 41
-77 58 -140 81 -160 114 -175 293 -2 31 -8 70 -11 85 l-7 27 29 -26 c16 -15
42 -33 58 -41z m807 20 c-47 -68 -79 -93 -196 -151 -61 -30 -125 -69 -144 -86
-19 -17 -35 -30 -37 -28 -2 2 18 35 45 73 55 78 119 131 218 178 146 70 154
71 114 14z m289 -9 c0 -6 -12 -45 -27 -86 -25 -71 -29 -77 -70 -95 -32 -14
-61 -18 -115 -16 l-73 3 65 35 c36 19 96 65 135 102 70 68 85 77 85 57z m-89
-223 c-30 -31 -37 -34 -116 -39 -95 -5 -157 -33 -195 -87 -28 -40 -96 -85
-147 -99 -60 -16 -123 -46 -171 -81 -23 -16 -42 -28 -42 -25 0 24 59 110 107
158 44 44 87 73 176 118 l118 59 117 0 c77 1 127 6 147 15 42 19 43 19 6 -19z
m-913 -145 c73 -49 109 -99 128 -178 11 -46 12 -67 3 -100 -13 -48 -24 -54
-35 -21 -9 31 -90 165 -120 201 -25 29 -75 122 -95 175 l-10 27 33 -31 c18
-17 61 -50 96 -73z m812 57 c-30 -25 -172 -94 -215 -104 l-29 -7 33 41 c32 41
71 74 101 85 8 3 42 6 75 6 l60 0 -25 -21z m-15 -67 c-8 -17 -12 -36 -9 -44 7
-19 -97 -96 -154 -114 -39 -11 -282 -24 -282 -15 0 6 106 50 140 57 19 5 60 8
90 7 50 -1 53 0 31 12 -22 12 -22 13 31 35 30 12 77 37 104 56 61 42 69 43 49
6z m-228 -217 c-26 -13 -91 -36 -145 -50 -104 -28 -139 -43 -189 -80 -17 -13
-34 -24 -37 -24 -11 0 26 86 47 108 40 44 77 55 197 62 193 11 182 13 127 -16z
m-593 -629 c-20 -67 -44 -252 -44 -340 0 -78 23 -182 45 -204 12 -12 17 -12
30 -1 14 12 16 28 10 117 -4 56 -4 142 0 190 l8 88 22 -90 c30 -116 47 -155
135 -300 160 -262 197 -414 103 -423 -45 -4 -97 21 -249 121 -147 97 -127 67
-203 288 -16 48 -48 124 -71 169 -50 99 -53 88 67 228 46 53 100 123 121 154
20 31 38 56 39 54 1 -1 -5 -24 -13 -51z m-864 -894 c17 -84 54 -223 81 -308
28 -85 49 -156 46 -159 -4 -4 -64 129 -144 324 -39 95 -52 193 -33 261 6 23
13 41 15 39 2 -2 18 -72 35 -157z m305 -281 c5 -23 4 -24 -7 -5 -14 23 -38
121 -37 150 1 17 27 -69 44 -145z m1985 -155 c0 -5 -5 -3 -10 5 -5 8 -10 20
-10 25 0 6 5 3 10 -5 5 -8 10 -19 10 -25z m69 -185 c0 -10 -3 -8 -9 5 -12 27
-12 43 0 25 5 -8 9 -22 9 -30z m78 -1347 c-3 -10 -5 -2 -5 17 0 19 2 27 5 18
2 -10 2 -26 0 -35z"/>
</g>
</svg>
