<svg width="21" height="21" viewBox="0 0 21 21" fill="none" xmlns="http://www.w3.org/2000/svg">
<path d="M6.125 6.24044C6.125 4.21162 6.125 3.19721 6.74773 2.6058C6.79139 2.56434 6.83691 2.52486 6.88413 2.4875C7.55766 1.95467 8.56188 2.09813 10.5703 2.38504L13.2235 2.76407C15.6797 3.11495 16.9077 3.29039 17.6414 4.13628C18.375 4.98217 18.375 6.22271 18.375 8.70377V12.2962C18.375 14.7773 18.375 16.0178 17.6414 16.8637C16.9077 17.7096 15.6797 17.885 13.2235 18.2359L10.3989 18.6394C8.55434 18.903 7.63206 19.0347 6.98749 18.589C6.86733 18.5059 6.75663 18.4099 6.65738 18.3027C6.125 17.7276 6.125 16.796 6.125 14.9327" stroke="#787878" stroke-width="2"/>
<path d="M14 10.5L14.7809 9.8753L15.2806 10.5L14.7809 11.1247L14 10.5ZM3.5 11.5C2.94771 11.5 2.5 11.0523 2.5 10.5C2.5 9.94772 2.94771 9.5 3.5 9.5V10.5V11.5ZM10.5 6.125L11.2809 5.5003L14.7809 9.8753L14 10.5L13.2191 11.1247L9.71913 6.7497L10.5 6.125ZM14 10.5L14.7809 11.1247L11.2809 15.4997L10.5 14.875L9.71913 14.2503L13.2191 9.8753L14 10.5ZM14 10.5V11.5H3.5V10.5V9.5H14V10.5Z" fill="#787878"/>
</svg>
