<svg xmlns="http://www.w3.org/2000/svg" viewBox="0 0 1024 1024" role="img" aria-labelledby="title">
  <title>Orchentra logo black</title><style>path{fill:#000}@media(prefers-color-scheme:dark){path{fill:#fff}}</style>
  <desc>Orchentra logo vectorized from supplied mark. Transparent background. Monochrome asset.</desc>
  <path d="M 527.515 816.179 C 538.131 815.498 549.835 813.865 559.362 812.096 C 568.889 810.326 575.558 808.557 584.676 805.563 C 593.795 802.569 604.410 798.622 614.073 794.131 C 623.736 789.640 633.399 784.468 642.654 778.616 C 651.909 772.763 660.687 766.571 669.601 759.018 C 678.516 751.464 688.859 741.121 696.140 733.295 C 703.422 725.469 708.389 718.733 713.289 712.064 C 718.188 705.395 721.455 700.223 725.537 693.282 C 729.620 686.341 734.248 677.767 737.786 670.418 C 741.325 663.069 744.183 656.128 746.769 649.187 C 749.355 642.246 751.124 636.938 753.301 628.772 C 755.479 620.606 758.201 610.263 759.834 600.191 C 761.467 590.120 762.556 577.735 763.100 568.344 C 763.645 558.954 763.509 552.149 763.100 543.847 C 762.692 535.545 761.603 525.746 760.651 518.533 C 759.698 511.320 757.112 508.325 757.384 500.568 C 757.657 492.810 761.331 483.419 762.284 471.987 C 763.237 460.555 763.373 442.998 763.100 431.974 C 762.828 420.951 761.603 413.193 760.651 405.844 C 759.698 398.494 759.562 396.589 757.384 387.879 C 755.207 379.169 750.852 363.245 747.585 353.582 C 744.319 343.919 741.189 337.250 737.786 329.901 C 734.384 322.552 731.254 316.427 727.171 309.486 C 723.088 302.545 718.460 295.332 713.289 288.255 C 708.117 281.178 702.469 274.033 696.140 267.024 C 689.812 260.015 682.190 252.393 675.317 246.201 C 668.444 240.009 660.755 234.224 654.903 229.869 C 649.051 225.514 647.553 224.289 640.204 220.070 C 632.855 215.851 618.020 208.094 610.807 204.555 C 603.594 201.016 603.186 201.016 596.925 198.839 C 590.665 196.661 581.138 193.531 573.244 191.490 C 565.350 189.448 557.184 187.815 549.563 186.590 C 541.942 185.365 536.362 184.549 527.515 184.140 C 518.669 183.732 505.467 183.732 496.485 184.140 C 487.502 184.549 482.875 184.957 473.620 186.590 C 464.366 188.223 451.164 190.945 440.957 193.939 C 430.750 196.934 421.631 200.472 412.376 204.555 C 403.122 208.638 393.731 213.537 385.429 218.437 C 377.127 223.337 369.233 228.917 362.565 233.952 C 355.896 238.988 352.425 241.914 345.416 248.651 C 338.407 255.388 328.336 264.914 320.510 274.373 C 312.685 283.832 304.587 295.604 298.463 305.404 C 292.338 315.203 287.439 325.546 283.764 333.167 C 280.089 340.789 279.001 343.783 276.415 351.132 C 273.829 358.482 270.562 368.281 268.249 377.263 C 265.935 386.246 263.894 396.589 262.533 405.027 C 261.172 413.465 260.491 417.820 260.083 427.892 C 259.675 437.963 259.539 454.567 260.083 465.455 C 260.627 476.342 262.397 486.958 263.349 493.219 C 264.302 499.479 265.799 500.023 265.799 503.018 C 265.799 506.012 264.302 505.195 263.349 511.183 C 262.397 517.172 260.627 528.604 260.083 538.947 C 259.539 549.291 259.539 562.901 260.083 573.244 C 260.627 583.587 261.852 592.162 263.349 601.008 C 264.846 609.854 266.888 618.292 269.065 626.322 C 271.243 634.352 273.829 642.110 276.415 649.187 C 279.001 656.264 281.314 661.844 284.581 668.785 C 287.847 675.726 291.794 683.619 296.013 690.833 C 300.232 698.046 304.859 705.123 309.895 712.064 C 314.930 719.005 320.170 725.742 326.226 732.478 C 332.283 739.215 339.360 746.292 346.233 752.485 C 353.106 758.677 361.068 764.870 367.464 769.633 C 373.861 774.397 378.216 777.255 384.612 781.065 C 391.009 784.876 397.950 788.823 405.844 792.498 C 413.737 796.172 425.033 800.527 431.974 803.113 C 438.915 805.699 440.549 806.243 447.490 808.013 C 454.431 809.782 465.591 812.368 473.620 813.729 C 481.650 815.090 486.686 815.770 495.668 816.179 C 504.651 816.587 516.900 816.859 527.515 816.179 Z
M 520.574 674.501 C 513.497 675.045 508.530 675.522 501.384 674.909 C 494.239 674.297 485.325 673.004 477.703 670.826 C 470.082 668.649 462.460 665.518 455.656 661.844 C 448.851 658.169 443.066 654.290 436.874 648.778 C 430.682 643.266 423.604 635.645 418.501 628.772 C 413.397 621.899 409.791 615.843 406.252 607.541 C 402.713 599.239 399.039 586.309 397.270 578.960 C 395.500 571.611 395.704 566.235 395.636 563.445 C 395.568 560.655 392.982 558.886 396.861 562.220 C 400.740 565.554 411.288 577.327 418.909 583.451 C 426.531 589.576 434.424 594.611 442.590 598.967 C 450.756 603.322 458.786 606.860 467.904 609.582 C 477.023 612.304 486.822 614.482 497.301 615.298 C 507.781 616.115 521.119 615.570 530.781 614.482 C 540.444 613.393 546.841 611.624 555.279 608.766 C 563.717 605.907 573.925 601.280 581.410 597.333 C 588.895 593.386 595.292 588.623 600.191 585.085 C 605.091 581.546 607.337 579.300 610.807 576.102 C 614.278 572.904 617.136 570.318 621.014 565.895 C 624.893 561.472 629.316 556.912 634.080 549.563 C 638.843 542.214 645.376 531.734 649.595 521.799 C 653.814 511.864 657.216 498.799 659.394 489.952 C 661.572 481.106 662.116 477.703 662.660 468.721 C 663.205 459.738 663.749 447.217 662.660 436.057 C 661.572 424.897 658.169 410.199 656.128 401.761 C 654.086 393.323 652.725 391.009 650.411 385.429 C 648.098 379.849 646.192 374.949 642.246 368.281 C 638.299 361.612 631.970 352.017 626.730 345.416 C 621.491 338.816 616.047 333.508 610.807 328.676 C 605.567 323.845 601.416 320.510 595.292 316.427 C 589.167 312.344 580.865 307.445 574.061 304.179 C 567.256 300.912 563.037 299.007 554.463 296.829 C 545.888 294.652 533.231 291.930 522.616 291.113 C 512.000 290.297 500.840 290.977 490.769 291.930 C 480.698 292.883 471.443 294.652 462.188 296.829 C 452.934 299.007 442.998 302.273 435.241 304.995 C 427.483 307.717 422.039 310.167 415.643 313.161 C 409.246 316.155 403.530 319.013 396.861 322.960 C 390.192 326.907 382.571 331.806 375.630 336.842 C 368.689 341.878 362.633 346.437 355.215 353.174 C 347.798 359.911 337.863 369.846 331.126 377.263 C 324.389 384.680 318.877 392.098 314.794 397.678 C 310.711 403.258 308.194 408.362 306.628 410.743 C 305.063 413.125 305.812 411.968 305.404 411.968 C 304.995 411.968 303.294 415.983 304.179 410.743 C 305.063 405.503 308.806 388.015 310.711 380.530 C 312.617 373.044 312.617 373.044 315.611 365.831 C 318.605 358.618 323.505 346.641 328.676 337.250 C 333.848 327.860 339.768 318.401 346.641 309.486 C 353.514 300.572 363.313 290.365 369.914 283.764 C 376.515 277.163 380.802 274.101 386.246 269.882 C 391.690 265.663 395.228 262.805 402.577 258.450 C 409.927 254.095 422.856 247.290 430.341 243.751 C 437.827 240.213 441.093 239.260 447.490 237.219 C 453.886 235.177 460.283 233.136 468.721 231.502 C 477.159 229.869 487.230 227.964 498.118 227.419 C 509.006 226.875 524.657 227.556 534.048 228.236 C 543.439 228.917 547.113 229.869 554.463 231.502 C 561.812 233.136 571.475 235.858 578.144 238.035 C 584.812 240.213 587.398 241.165 594.475 244.568 C 601.552 247.970 613.393 254.095 620.606 258.450 C 627.819 262.805 632.038 266.207 637.754 270.699 C 643.470 275.190 649.527 280.293 654.903 285.397 C 660.279 290.501 665.722 296.353 670.010 301.321 C 674.297 306.288 676.951 309.895 680.625 315.203 C 684.300 320.510 688.247 326.363 692.057 333.167 C 695.868 339.972 700.223 348.547 703.490 356.032 C 706.756 363.517 709.478 371.411 711.656 378.080 C 713.833 384.749 715.058 389.376 716.555 396.045 C 718.052 402.713 719.685 411.152 720.638 418.093 C 721.591 425.033 721.999 431.022 722.271 437.691 C 722.543 444.359 722.679 450.756 722.271 458.105 C 721.863 465.455 721.046 474.029 719.821 481.786 C 718.596 489.544 716.827 497.438 714.922 504.651 C 713.016 511.864 711.928 516.219 708.389 525.065 C 704.851 533.912 698.726 548.202 693.691 557.729 C 688.655 567.256 682.531 575.830 678.175 582.226 C 673.820 588.623 673.616 589.372 667.560 596.108 C 661.503 602.845 649.255 615.775 641.837 622.648 C 634.420 629.520 629.452 632.855 623.056 637.346 C 616.659 641.837 611.079 645.512 603.458 649.595 C 595.836 653.678 583.996 658.986 577.327 661.844 C 570.658 664.702 569.025 665.110 563.445 666.743 C 557.865 668.376 550.992 670.350 543.847 671.643 C 536.702 672.936 527.651 673.956 520.574 674.501 Z
M 525.474 773.308 C 516.355 773.988 506.080 773.920 498.935 773.716 C 491.789 773.512 488.183 772.900 482.603 772.083 C 477.023 771.266 471.579 770.314 465.455 768.817 C 459.330 767.320 452.797 765.550 445.856 763.100 C 438.915 760.651 429.797 756.840 423.809 754.118 C 417.820 751.396 414.826 749.627 409.927 746.769 C 405.027 743.911 400.128 741.053 394.411 736.970 C 388.695 732.887 383.456 729.688 375.630 722.271 C 367.804 714.854 355.011 701.788 347.458 692.466 C 339.904 683.143 334.937 674.229 330.309 666.335 C 325.682 658.441 322.960 652.589 319.694 645.104 C 316.427 637.618 313.161 628.908 310.711 621.423 C 308.262 613.937 306.628 608.085 304.995 600.191 C 303.362 592.298 301.457 586.037 300.912 574.061 C 300.368 562.084 300.368 541.805 301.729 528.332 C 303.090 514.858 306.492 502.881 309.078 493.219 C 311.664 483.556 314.522 477.023 317.244 470.354 C 319.966 463.685 322.280 459.058 325.410 453.206 C 328.540 447.354 331.398 442.182 336.026 435.241 C 340.653 428.300 345.212 420.610 353.174 411.560 C 361.136 402.509 375.290 388.491 383.796 380.938 C 392.302 373.384 397.270 370.730 404.211 366.239 C 411.152 361.748 418.501 357.529 425.442 353.990 C 432.383 350.452 439.188 347.594 445.856 345.008 C 452.525 342.422 458.377 340.381 465.455 338.475 C 472.532 336.570 481.786 334.665 488.319 333.576 C 494.852 332.487 498.118 332.079 504.651 331.943 C 511.183 331.806 520.982 332.079 527.515 332.759 C 534.048 333.440 537.314 333.848 543.847 336.026 C 550.380 338.203 560.179 342.286 566.711 345.825 C 573.244 349.363 577.531 352.289 583.043 357.257 C 588.555 362.224 594.679 368.621 599.783 375.630 C 604.887 382.639 609.854 390.601 613.665 399.311 C 617.476 408.021 620.878 420.542 622.648 427.892 C 624.417 435.241 624.213 440.617 624.281 443.407 C 624.349 446.197 627.071 447.966 623.056 444.632 C 619.041 441.297 608.766 429.797 600.191 423.400 C 591.617 417.004 580.049 410.471 571.611 406.252 C 563.173 402.033 557.729 400.264 549.563 398.086 C 541.397 395.909 532.006 393.867 522.616 393.187 C 513.225 392.506 503.154 392.642 493.219 394.003 C 483.283 395.364 472.804 397.814 463.005 401.352 C 453.206 404.891 443.135 409.927 434.424 415.234 C 425.714 420.542 418.161 426.463 410.743 433.199 C 403.326 439.936 394.888 449.735 389.920 455.656 C 384.953 461.576 383.932 463.821 380.938 468.721 C 377.944 473.620 375.086 477.839 371.955 485.053 C 368.825 492.266 364.470 504.106 362.156 512.000 C 359.843 519.894 359.026 526.018 358.073 532.415 C 357.121 538.811 356.304 541.805 356.440 550.380 C 356.576 558.954 357.121 573.244 358.890 583.860 C 360.659 594.475 363.789 604.955 367.056 614.073 C 370.322 623.192 373.725 630.405 378.488 638.571 C 383.251 646.737 390.260 656.468 395.636 663.069 C 401.012 669.669 405.095 673.344 410.743 678.175 C 416.391 683.007 422.992 687.974 429.525 692.057 C 436.057 696.140 443.951 699.951 449.939 702.673 C 455.928 705.395 459.194 706.620 465.455 708.389 C 471.715 710.158 480.425 712.200 487.502 713.289 C 494.579 714.377 499.887 714.922 507.917 714.922 C 515.947 714.922 527.243 714.241 535.681 713.289 C 544.119 712.336 550.107 711.247 558.545 709.206 C 566.984 707.164 578.688 703.626 586.309 701.040 C 593.931 698.454 597.878 696.685 604.274 693.691 C 610.671 690.696 617.884 687.022 624.689 683.075 C 631.494 679.128 638.435 674.773 645.104 670.010 C 651.772 665.246 658.237 660.142 664.702 654.494 C 671.166 648.846 677.699 642.722 683.892 636.121 C 690.084 629.520 696.549 621.831 701.856 614.890 C 707.164 607.949 713.221 598.082 715.738 594.475 C 718.256 590.869 716.555 593.250 716.963 593.250 C 717.372 593.250 718.528 591.413 718.188 594.475 C 717.848 597.537 716.691 604.955 714.922 611.624 C 713.153 618.292 711.111 625.642 707.573 634.488 C 704.034 643.334 699.135 654.903 693.691 664.702 C 688.247 674.501 682.463 683.823 674.909 693.282 C 667.356 702.741 657.557 713.221 648.370 721.455 C 639.183 729.688 627.411 737.514 619.789 742.686 C 612.168 747.858 607.949 749.763 602.641 752.485 C 597.333 755.207 596.108 756.159 587.943 759.018 C 579.777 761.876 564.057 767.251 553.646 769.633 C 543.234 772.015 534.592 772.627 525.474 773.308 Z
M 514.858 575.694 C 510.911 575.966 509.754 576.578 504.651 576.102 C 499.547 575.626 490.088 574.197 484.236 572.836 C 478.384 571.475 475.117 570.386 469.537 567.936 C 463.957 565.486 455.928 561.267 450.756 558.137 C 445.584 555.007 443.203 553.306 438.507 549.155 C 433.812 545.004 427.143 538.471 422.584 533.231 C 418.024 527.991 414.146 522.207 411.152 517.716 C 408.157 513.225 404.483 510.639 404.619 506.284 C 404.755 501.929 409.518 495.804 411.968 491.585 C 414.418 487.366 416.595 484.508 419.317 480.970 C 422.039 477.431 424.829 473.961 428.300 470.354 C 431.770 466.747 436.534 462.392 440.140 459.330 C 443.747 456.268 445.312 454.839 449.939 451.981 C 454.567 449.123 462.733 444.632 467.904 442.182 C 473.076 439.732 475.390 438.779 480.970 437.282 C 486.550 435.785 494.443 433.880 501.384 433.199 C 508.325 432.519 517.444 432.927 522.616 433.199 C 527.787 433.472 527.923 433.744 532.415 434.833 C 536.906 435.921 544.119 437.691 549.563 439.732 C 555.007 441.774 559.226 443.543 565.078 447.081 C 570.930 450.620 579.028 456.268 584.676 460.963 C 590.324 465.659 594.952 470.694 598.967 475.254 C 602.981 479.813 605.907 483.964 608.766 488.319 C 611.624 492.674 616.115 496.485 616.115 501.384 C 616.115 506.284 611.896 512.272 608.766 517.716 C 605.635 523.160 600.668 529.761 597.333 534.048 C 593.999 538.335 592.502 539.968 588.759 543.439 C 585.016 546.909 578.688 552.013 574.877 554.871 C 571.066 557.729 570.930 558.001 565.895 560.587 C 560.859 563.173 550.924 568.072 544.663 570.386 C 538.403 572.700 533.299 573.584 528.332 574.469 C 523.364 575.354 518.805 575.422 514.858 575.694 Z" fill-rule="evenodd" clip-rule="evenodd"/>
</svg>
